<svg width="25" height="24" viewBox="0 0 25 24" fill="none" xmlns="http://www.w3.org/2000/svg">
<g clip-path="url(#clip0_106_223714)">
<path d="M15.9999 14H15.2099L14.9299 13.73C16.1299 12.33 16.7499 10.42 16.4099 8.39002C15.9399 5.61002 13.6199 3.39002 10.8199 3.05002C6.58989 2.53002 3.02989 6.09001 3.54989 10.32C3.88989 13.12 6.10989 15.44 8.88989 15.91C10.9199 16.25 12.8299 15.63 14.2299 14.43L14.4999 14.71V15.5L18.7499 19.75C19.1599 20.16 19.8299 20.16 20.2399 19.75C20.6499 19.34 20.6499 18.67 20.2399 18.26L15.9999 14ZM9.99989 14C7.50989 14 5.49989 11.99 5.49989 9.50002C5.49989 7.01002 7.50989 5.00002 9.99989 5.00002C12.4899 5.00002 14.4999 7.01002 14.4999 9.50002C14.4999 11.99 12.4899 14 9.99989 14Z" fill="white"/>
</g>
<defs>
<clipPath id="clip0_106_223714">
<rect width="24" height="24" fill="white" transform="translate(0.5)"/>
</clipPath>
</defs>
</svg>
