<svg width="17" height="16" viewBox="0 0 17 16" fill="none" xmlns="http://www.w3.org/2000/svg">
<g clip-path="url(#clip0_103_57571)">
<path d="M13.8333 5.33329H11.8333V2.66663H2.49996C1.76663 2.66663 1.16663 3.26663 1.16663 3.99996V11.3333H2.49996C2.49996 12.44 3.39329 13.3333 4.49996 13.3333C5.60663 13.3333 6.49996 12.44 6.49996 11.3333H10.5C10.5 12.44 11.3933 13.3333 12.5 13.3333C13.6066 13.3333 14.5 12.44 14.5 11.3333H15.8333V7.99996L13.8333 5.33329ZM13.5 6.33329L14.8066 7.99996H11.8333V6.33329H13.5ZM4.49996 12C4.13329 12 3.83329 11.7 3.83329 11.3333C3.83329 10.9666 4.13329 10.6666 4.49996 10.6666C4.86663 10.6666 5.16663 10.9666 5.16663 11.3333C5.16663 11.7 4.86663 12 4.49996 12ZM5.97996 9.99996C5.61329 9.59329 5.09329 9.33329 4.49996 9.33329C3.90663 9.33329 3.38663 9.59329 3.01996 9.99996H2.49996V3.99996H10.5V9.99996H5.97996ZM12.5 12C12.1333 12 11.8333 11.7 11.8333 11.3333C11.8333 10.9666 12.1333 10.6666 12.5 10.6666C12.8666 10.6666 13.1666 10.9666 13.1666 11.3333C13.1666 11.7 12.8666 12 12.5 12Z" fill="white"/>
</g>
<defs>
<clipPath id="clip0_103_57571">
<rect width="16" height="16" fill="white" transform="translate(0.5)"/>
</clipPath>
</defs>
</svg>
