<svg width="17" height="16" viewBox="0 0 17 16" fill="none" xmlns="http://www.w3.org/2000/svg">
<g clip-path="url(#clip0_103_57556)">
<path d="M10.8666 8.66671C11.3666 8.66671 11.8066 8.39337 12.0333 7.98004L14.42 3.65337C14.6666 3.21337 14.3466 2.66671 13.84 2.66671H3.97329L3.34663 1.33337H1.16663V2.66671H2.49996L4.89996 7.72671L3.99996 9.35337C3.51329 10.2467 4.15329 11.3334 5.16663 11.3334H13.1666V10H5.16663L5.89996 8.66671H10.8666ZM4.60663 4.00004H12.7066L10.8666 7.33337H6.18663L4.60663 4.00004ZM5.16663 12C4.43329 12 3.83996 12.6 3.83996 13.3334C3.83996 14.0667 4.43329 14.6667 5.16663 14.6667C5.89996 14.6667 6.49996 14.0667 6.49996 13.3334C6.49996 12.6 5.89996 12 5.16663 12ZM11.8333 12C11.1 12 10.5066 12.6 10.5066 13.3334C10.5066 14.0667 11.1 14.6667 11.8333 14.6667C12.5666 14.6667 13.1666 14.0667 13.1666 13.3334C13.1666 12.6 12.5666 12 11.8333 12Z" fill="white"/>
</g>
<defs>
<clipPath id="clip0_103_57556">
<rect width="16" height="16" fill="white" transform="translate(0.5)"/>
</clipPath>
</defs>
</svg>
