<svg width="17" height="16" viewBox="0 0 17 16" fill="none" xmlns="http://www.w3.org/2000/svg">
<g clip-path="url(#clip0_103_57565)">
<path d="M11.8334 4.66663H9.16671V5.99996H11.8334C12.9334 5.99996 13.8334 6.89996 13.8334 7.99996C13.8334 9.09996 12.9334 9.99996 11.8334 9.99996H9.16671V11.3333H11.8334C13.6734 11.3333 15.1667 9.83996 15.1667 7.99996C15.1667 6.15996 13.6734 4.66663 11.8334 4.66663ZM7.83337 9.99996H5.16671C4.06671 9.99996 3.16671 9.09996 3.16671 7.99996C3.16671 6.89996 4.06671 5.99996 5.16671 5.99996H7.83337V4.66663H5.16671C3.32671 4.66663 1.83337 6.15996 1.83337 7.99996C1.83337 9.83996 3.32671 11.3333 5.16671 11.3333H7.83337V9.99996ZM5.83337 7.33329H11.1667V8.66663H5.83337V7.33329Z" fill="white"/>
</g>
<defs>
<clipPath id="clip0_103_57565">
<rect width="16" height="16" fill="white" transform="translate(0.5)"/>
</clipPath>
</defs>
</svg>
