<svg width="17" height="16" viewBox="0 0 17 16" fill="none" xmlns="http://www.w3.org/2000/svg">
<g clip-path="url(#clip0_106_223656)">
<path d="M8.2655 4.66671H9.59884V6.00004H8.2655V4.66671ZM8.93217 11.3334C9.29884 11.3334 9.59884 11.0334 9.59884 10.6667V8.00004C9.59884 7.63337 9.29884 7.33337 8.93217 7.33337C8.5655 7.33337 8.2655 7.63337 8.2655 8.00004V10.6667C8.2655 11.0334 8.5655 11.3334 8.93217 11.3334ZM8.93217 1.33337C5.25217 1.33337 2.2655 4.32004 2.2655 8.00004C2.2655 11.68 5.25217 14.6667 8.93217 14.6667C12.6122 14.6667 15.5988 11.68 15.5988 8.00004C15.5988 4.32004 12.6122 1.33337 8.93217 1.33337ZM8.93217 13.3334C5.99217 13.3334 3.59884 10.94 3.59884 8.00004C3.59884 5.06004 5.99217 2.66671 8.93217 2.66671C11.8722 2.66671 14.2655 5.06004 14.2655 8.00004C14.2655 10.94 11.8722 13.3334 8.93217 13.3334Z" fill="#00689C"/>
</g>
<defs>
<clipPath id="clip0_106_223656">
<rect width="16" height="16" fill="white" transform="translate(0.932129)"/>
</clipPath>
</defs>
</svg>
