<svg width="34" height="34" viewBox="0 0 34 34" fill="none" xmlns="http://www.w3.org/2000/svg">
<g clip-path="url(#clip0_103_113158)">
<path d="M8.2494 3.81458C8.2494 1.73345 9.92482 0.041626 11.9833 0.041626C14.0419 0.041626 15.7173 1.73345 15.7162 3.81458C15.7162 4.41395 15.577 4.98114 15.3296 5.48489L17.2998 7.47624C18.7341 6.38287 20.5179 5.73398 22.4488 5.73398C27.1716 5.73398 31.0147 9.61613 31.0147 14.3894C31.0147 19.1627 27.1716 23.0459 22.4488 23.0459C20.7484 23.0459 19.162 22.5425 17.828 21.6755L15.2871 24.2429C15.7943 25.1779 16.0828 26.2504 16.0828 27.3895C16.0828 31.0092 13.1675 33.9583 9.58416 33.9583C5.99975 33.9583 3.08331 31.0092 3.08331 27.3895C3.08331 23.7688 5.99975 20.8219 9.58416 20.8219C10.7104 20.8219 11.7706 21.113 12.6951 21.6246L15.237 19.0561C14.3802 17.7086 13.8828 16.1066 13.8828 14.3894C13.8828 12.6114 14.416 10.9571 15.3293 9.58094L13.1638 7.39216C12.7926 7.51745 12.3957 7.58534 11.9833 7.58534C9.92482 7.58534 8.2494 5.89351 8.2494 3.81458Z" fill="#0077DA"/>
</g>
<defs>
<clipPath id="clip0_103_113158">
<rect width="33.9167" height="33.9167" fill="white" transform="translate(0 0.041626)"/>
</clipPath>
</defs>
</svg>
