<svg width="25" height="24" viewBox="0 0 25 24" fill="none" xmlns="http://www.w3.org/2000/svg">
<g clip-path="url(#clip0_103_59459)">
<path d="M6.33337 10C5.23337 10 4.33337 10.9 4.33337 12C4.33337 13.1 5.23337 14 6.33337 14C7.43337 14 8.33337 13.1 8.33337 12C8.33337 10.9 7.43337 10 6.33337 10ZM18.3334 10C17.2334 10 16.3334 10.9 16.3334 12C16.3334 13.1 17.2334 14 18.3334 14C19.4334 14 20.3334 13.1 20.3334 12C20.3334 10.9 19.4334 10 18.3334 10ZM12.3334 10C11.2334 10 10.3334 10.9 10.3334 12C10.3334 13.1 11.2334 14 12.3334 14C13.4334 14 14.3334 13.1 14.3334 12C14.3334 10.9 13.4334 10 12.3334 10Z" fill="black" fill-opacity="0.2"/>
</g>
<defs>
<clipPath id="clip0_103_59459">
<rect width="24" height="24" fill="white" transform="translate(0.333374)"/>
</clipPath>
</defs>
</svg>
