<svg width="25" height="24" viewBox="0 0 25 24" fill="none" xmlns="http://www.w3.org/2000/svg">
<g clip-path="url(#clip0_103_57789)">
<path d="M15.6666 11C16.4951 11 17.1666 10.3284 17.1666 9.5C17.1666 8.67157 16.4951 8 15.6666 8C14.8382 8 14.1666 8.67157 14.1666 9.5C14.1666 10.3284 14.8382 11 15.6666 11Z" fill="#F0FAFF"/>
<path d="M8.66663 11C9.49505 11 10.1666 10.3284 10.1666 9.5C10.1666 8.67157 9.49505 8 8.66663 8C7.8382 8 7.16663 8.67157 7.16663 9.5C7.16663 10.3284 7.8382 11 8.66663 11Z" fill="#F0FAFF"/>
<path d="M12.1666 16C10.6866 16 9.41663 15.19 8.71663 14H7.04663C7.84663 16.05 9.83663 17.5 12.1666 17.5C14.4966 17.5 16.4866 16.05 17.2866 14H15.6166C14.9166 15.19 13.6466 16 12.1666 16ZM12.1566 2C6.63663 2 2.16663 6.48 2.16663 12C2.16663 17.52 6.63663 22 12.1566 22C17.6866 22 22.1666 17.52 22.1666 12C22.1666 6.48 17.6866 2 12.1566 2ZM12.1666 20C7.74663 20 4.16663 16.42 4.16663 12C4.16663 7.58 7.74663 4 12.1666 4C16.5866 4 20.1666 7.58 20.1666 12C20.1666 16.42 16.5866 20 12.1666 20Z" fill="#F0FAFF"/>
</g>
<defs>
<clipPath id="clip0_103_57789">
<rect width="24" height="24" fill="white" transform="translate(0.166626)"/>
</clipPath>
</defs>
</svg>
