<svg width="25" height="24" viewBox="0 0 25 24" fill="none" xmlns="http://www.w3.org/2000/svg">
<g clip-path="url(#clip0_106_223634)">
<path d="M17.4321 9.5C17.4321 10.0523 16.9844 10.5 16.4321 10.5C15.8798 10.5 15.4321 10.0523 15.4321 9.5C15.4321 8.94772 15.8798 8.5 16.4321 8.5C16.9844 8.5 17.4321 8.94772 17.4321 9.5ZM10.4321 9.5C10.4321 10.0523 9.98441 10.5 9.43213 10.5C8.87984 10.5 8.43213 10.0523 8.43213 9.5C8.43213 8.94772 8.87984 8.5 9.43213 8.5C9.98441 8.5 10.4321 8.94772 10.4321 9.5ZM8.60558 14.5H9.20672C10.0149 15.6962 11.367 16.5 12.9321 16.5C14.4973 16.5 15.8493 15.6962 16.6575 14.5H17.2587C16.3945 15.996 14.7805 17 12.9321 17C11.0838 17 9.46977 15.996 8.60558 14.5ZM3.43213 12C3.43213 6.75549 7.67892 2.5 12.9221 2.5C18.1763 2.5 22.4321 6.75647 22.4321 12C22.4321 17.2435 18.1763 21.5 12.9221 21.5C7.67892 21.5 3.43213 17.2445 3.43213 12ZM4.43213 12C4.43213 16.6961 8.23599 20.5 12.9321 20.5C17.6283 20.5 21.4321 16.6961 21.4321 12C21.4321 7.30386 17.6283 3.5 12.9321 3.5C8.23599 3.5 4.43213 7.30386 4.43213 12Z" fill="#61676B" stroke="#61676B"/>
</g>
<defs>
<clipPath id="clip0_106_223634">
<rect width="24" height="24" fill="white" transform="translate(0.932129)"/>
</clipPath>
</defs>
</svg>
