<svg width="13" height="14" viewBox="0 0 13 14" fill="none" xmlns="http://www.w3.org/2000/svg">
<path d="M5.83333 11.95V7.38337L1.83333 5.06671V9.63337L5.83333 11.95ZM7.16667 11.95L11.1667 9.63337V5.06671L7.16667 7.38337V11.95ZM5.83333 13.4834L1.16667 10.8C0.955556 10.6778 0.791667 10.5167 0.675 10.3167C0.558333 10.1167 0.5 9.89449 0.5 9.65004V4.35004C0.5 4.1056 0.558333 3.88337 0.675 3.68337C0.791667 3.48337 0.955556 3.32226 1.16667 3.20004L5.83333 0.516707C6.04444 0.394485 6.26667 0.333374 6.5 0.333374C6.73333 0.333374 6.95556 0.394485 7.16667 0.516707L11.8333 3.20004C12.0444 3.32226 12.2083 3.48337 12.325 3.68337C12.4417 3.88337 12.5 4.1056 12.5 4.35004V9.65004C12.5 9.89449 12.4417 10.1167 12.325 10.3167C12.2083 10.5167 12.0444 10.6778 11.8333 10.8L7.16667 13.4834C6.95556 13.6056 6.73333 13.6667 6.5 13.6667C6.26667 13.6667 6.04444 13.6056 5.83333 13.4834ZM9.16667 4.68337L10.45 3.95004L6.5 1.66671L5.2 2.41671L9.16667 4.68337ZM6.5 6.23337L7.8 5.48337L3.85 3.20004L2.55 3.95004L6.5 6.23337Z" fill="white"/>
</svg>
