<svg width="166" height="26" viewBox="0 0 166 26" fill="none" xmlns="http://www.w3.org/2000/svg">
<path d="M0.849976 25.6019V1.19199H9.99403C12.0208 1.19199 13.6252 1.76122 14.8035 2.9015C15.9837 4.04178 16.5765 5.57544 16.5765 7.50792C16.5765 8.64457 16.339 9.67427 15.8622 10.5934C15.3855 11.5125 14.6241 12.1796 13.5835 12.5929C14.8489 12.8667 15.8767 13.6045 16.669 14.7955C17.4612 15.992 17.8546 17.2392 17.8546 18.5427C17.8546 19.8225 17.5772 20.9936 17.0225 22.056C16.4659 23.1183 15.6447 23.9721 14.5497 24.6229C13.4584 25.2719 12.1894 25.5982 10.75 25.5982H0.849976V25.6019ZM4.1385 11.3312H10.0303C11.0691 11.3312 11.8721 10.9741 12.4378 10.2634C13.0052 9.55281 13.288 8.67539 13.288 7.62938C13.288 6.57431 12.9635 5.74947 12.3181 5.1603C11.6727 4.57112 10.7917 4.27382 9.68403 4.27382H4.1385V11.3312ZM4.1385 22.5255H10.6702C11.825 22.5255 12.7641 22.1248 13.4856 21.329C14.2089 20.5332 14.5697 19.5941 14.5697 18.5082C14.5697 17.4477 14.1962 16.4724 13.4439 15.5787C12.6916 14.6831 11.7344 14.2354 10.5687 14.2354H4.14031L4.1385 22.5255Z" fill="#15171A"/>
<path d="M20.6409 17.3154C20.6409 15.6077 21.0289 14.0903 21.7994 12.7633C22.5735 11.4382 23.5905 10.4284 24.8595 9.73953C26.1267 9.04521 27.5226 8.70077 29.0417 8.70077C30.2545 8.70077 31.3966 8.94551 32.4662 9.43497C33.534 9.92444 34.328 10.626 34.8465 11.5361V9.06334H38.0643V25.6019H34.8447V23.0603C34.3135 23.9703 33.5159 24.6791 32.4445 25.1885C31.3785 25.6907 30.2437 25.9499 29.0399 25.9499C26.714 25.9499 24.7326 25.1523 23.0992 23.5425C21.4585 21.9417 20.6409 19.866 20.6409 17.3154ZM23.9295 17.2791C23.9295 18.8853 24.4461 20.205 25.4867 21.2438C26.5273 22.2826 27.8035 22.801 29.3173 22.801C30.8528 22.801 32.1508 22.3061 33.2131 21.3109C34.2754 20.3193 34.8084 18.9778 34.8084 17.2791C34.8084 16.1497 34.5329 15.1599 33.9763 14.3133C33.4216 13.4649 32.7381 12.8413 31.9205 12.4443C31.1084 12.0455 30.24 11.8479 29.3155 11.8479C27.789 11.8479 26.511 12.3482 25.4758 13.3525C24.4461 14.3586 23.9295 15.6657 23.9295 17.2791Z" fill="#15171A"/>
<path d="M41.5073 20.6383H44.484C44.542 21.0135 44.687 21.3779 44.9227 21.735C45.1583 22.0831 45.4611 22.3623 45.8309 22.5599C46.5651 23.0203 47.4353 23.2125 48.436 23.1418C49.1829 23.091 49.7866 22.8572 50.2452 22.4584C50.7093 22.0613 50.9468 21.5592 50.9559 20.9537C50.9667 20.3863 50.7691 19.9258 50.3631 19.5832C49.9534 19.2351 49.4149 18.985 48.7406 18.8327L46.4745 18.2997C44.8955 17.8719 43.7262 17.2374 42.9739 16.389C42.2197 15.5388 41.9097 14.384 42.0493 12.9174C42.1653 11.7173 42.7835 10.7148 43.9057 9.90807C45.0296 9.10136 46.3313 8.6971 47.8142 8.6971C48.5248 8.6971 49.1901 8.78411 49.8138 8.95633C50.4356 9.13037 51.0084 9.39867 51.536 9.76123C52.0617 10.1256 52.4895 10.6115 52.8267 11.2242C53.1585 11.8333 53.3597 12.5494 53.4268 13.3688H50.4501C50.3721 12.7705 50.0875 12.3083 49.6035 11.9856C49.1213 11.6611 48.5466 11.4997 47.8776 11.4997C47.2721 11.4997 46.7337 11.6393 46.2642 11.9203C45.8001 12.2013 45.5082 12.5639 45.3958 13.0098C45.2581 13.5356 45.2707 13.9815 45.4285 14.3405C45.6768 14.8934 46.3113 15.3194 47.341 15.624L49.7775 16.2204C52.64 16.9219 54.1066 18.5281 54.1737 21.0443C54.1737 22.52 53.5428 23.7038 52.2847 24.5993C51.0284 25.4985 49.4983 25.9481 47.6927 25.9481C46.6721 25.9481 45.7058 25.7505 44.794 25.3498C43.8748 24.9528 43.108 24.3401 42.4898 23.5044C41.8698 22.6777 41.5417 21.7223 41.5073 20.6383Z" fill="#15171A"/>
<path d="M56.4582 17.2797C56.4582 14.7199 57.2667 12.6497 58.8838 11.0707C60.5081 9.48989 62.524 8.69949 64.9351 8.69949C67.3209 8.69949 69.2896 9.48445 70.8306 11.0526C72.3787 12.6207 73.1474 14.6964 73.1474 17.2797C73.1474 17.8924 73.1383 18.313 73.1147 18.545H59.6724C59.8664 19.9101 60.4574 21.0032 61.4381 21.8226C62.4207 22.6366 63.6118 23.0445 65.0203 23.0445C66.0265 23.0445 66.9529 22.8215 67.8067 22.3719C68.6606 21.926 69.315 21.2987 69.761 20.492C70.0837 20.6189 70.5786 20.8147 71.2493 21.0685C71.9164 21.3314 72.3443 21.4909 72.5292 21.5616C71.8367 22.9665 70.8052 24.0542 69.4383 24.812C68.0714 25.5698 66.5667 25.9487 64.9152 25.9487C62.5204 25.9487 60.5063 25.151 58.8838 23.543C57.2667 21.9423 56.4582 19.8557 56.4582 17.2797ZM59.6724 16.036H69.9296C69.7338 14.6637 69.1863 13.5815 68.2817 12.7911C67.3734 12.0007 66.2531 11.6055 64.9152 11.6055C63.5302 11.6055 62.3609 12.0007 61.4019 12.7911C60.4465 13.5833 59.8718 14.6655 59.6724 16.036Z" fill="#15171A"/>
<path d="M76.9416 25.6017V1.1918H80.2284V22.5253H90.1737V25.6017H76.9416Z" fill="#15171A"/>
<path d="M93.1275 4.45303C92.6925 4.05602 92.4749 3.55567 92.4749 2.95562C92.4749 2.35739 92.6925 1.85704 93.1275 1.46003C93.559 1.06302 94.0793 0.861795 94.6884 0.861795C95.3175 0.861795 95.8468 1.06121 96.2819 1.46003C96.717 1.85704 96.9309 2.35739 96.9309 2.95562C96.9309 3.55567 96.717 4.0542 96.2819 4.45303C95.8468 4.85185 95.3175 5.05127 94.6884 5.05127C94.0847 5.04945 93.5608 4.85185 93.1275 4.45303ZM93.0822 25.6016V9.06308H96.3V25.6016H93.0822Z" fill="#15171A"/>
<path d="M100.967 25.6024V9.06387H104.185V11.5366C104.645 10.6138 105.37 9.91228 106.364 9.42644C107.357 8.9406 108.356 8.69949 109.353 8.69949C111.403 8.69949 112.975 9.33942 114.074 10.6193C115.169 11.901 115.722 13.7047 115.722 16.036V25.6024H112.507V16.2427C112.507 14.8577 112.186 13.7809 111.537 13.0068C110.896 12.2363 109.998 11.8502 108.856 11.8502C108.245 11.8502 107.674 11.9372 107.136 12.1167C106.597 12.2962 106.106 12.5681 105.66 12.9379C105.207 13.3077 104.852 13.8135 104.583 14.4498C104.319 15.0897 104.186 15.833 104.186 16.6742V25.5988H100.969L100.967 25.6024Z" fill="#15171A"/>
<path d="M120.209 25.6019V0.0499268H123.425V14.8228L129.134 9.06518H133.532L126.438 16.2096L135.227 25.6019H130.97L123.425 17.5239V25.6019H120.209Z" fill="#15171A"/>
<path d="M135.158 17.2797C135.158 14.7199 135.966 12.6497 137.587 11.0707C139.209 9.48989 141.223 8.69949 143.635 8.69949C146.022 8.69949 147.989 9.48445 149.53 11.0526C151.078 12.6207 151.852 14.6964 151.852 17.2797C151.852 17.8924 151.838 18.313 151.816 18.545H138.374C138.573 19.9101 139.159 21.0032 140.136 21.8226C141.118 22.6366 142.313 23.0445 143.723 23.0445C144.728 23.0445 145.65 22.8215 146.506 22.3719C147.364 21.926 148.014 21.2987 148.46 20.492C148.787 20.6189 149.28 20.8147 149.951 21.0685C150.616 21.3314 151.046 21.4909 151.229 21.5616C150.536 22.9665 149.508 24.0542 148.139 24.812C146.773 25.5698 145.266 25.9487 143.616 25.9487C141.22 25.9487 139.206 25.151 137.587 23.543C135.966 21.9423 135.158 19.8557 135.158 17.2797ZM138.374 16.036H148.629C148.437 14.6637 147.886 13.5815 146.979 12.7911C146.073 12.0007 144.954 11.6055 143.616 11.6055C142.231 11.6055 141.06 12.0007 140.103 12.7911C139.148 13.5833 138.575 14.6655 138.374 16.036Z" fill="#15171A"/>
<path d="M155.242 25.6024V9.06387H158.458V12.782C159.252 10.0609 160.787 8.69949 163.061 8.69949C163.626 8.69949 164.183 8.76657 164.728 8.89709C165.278 9.02943 165.677 9.17627 165.932 9.33942L165.434 12.3487C164.658 11.9699 163.847 11.7777 162.99 11.7777C161.966 11.7777 161.106 12.1312 160.412 12.8346C159.721 13.538 159.225 14.4589 158.918 15.6028C158.61 16.7449 158.458 18.0701 158.458 19.582V25.5988H155.242V25.6024Z" fill="#15171A"/>
</svg>
